Coordinates
version=1
nRows=19
nColumns=24
inDegrees=yes

Units are S.I. units (second, meters, Newtons, ...)
Angles are in degrees.

endheader
time	pelvis_tilt	pelvis_list	pelvis_rotation	pelvis_tx	pelvis_ty	pelvis_tz	hip_flexion_r	hip_adduction_r	hip_rotation_r	knee_angle_r	ankle_angle_r	subtalar_angle_r	mtp_angle_r	hip_flexion_l	hip_adduction_l	hip_rotation_l	knee_angle_l	ankle_angle_l	subtalar_angle_l	mtp_angle_l	lumbar_extension	lumbar_bending	lumbar_rotation
      0.53316667	     -5.94703935	      1.14165087	      2.40386032	     -0.40224538	      1.06328556	      0.33561241	     18.09416956	      1.44117560	     -3.18841042	    -20.45154025	     10.20111706	     -4.51258587	      4.79939803	     20.24535833	     -3.02309973	     -4.02301341	    -69.16225327	      5.91231089	      3.93113515	      2.81810925	    -11.11002418	      4.82441475	      1.00123985
      0.53733333	     -5.91354171	      1.23792046	      2.35080459	     -0.39706962	      1.06431685	      0.33598367	     17.58878173	      1.37204480	     -3.21071399	    -20.11843270	     10.30330357	     -4.34435622	      4.78719923	     20.71513953	     -2.91861962	     -4.09204012	    -68.84009413	      6.26378458	      4.23261609	      2.85129494	    -11.17800075	      4.67072381	      1.17167662
      0.54150000	     -5.86906517	      1.31515227	      2.28470850	     -0.39188780	      1.06534152	      0.33636397	     17.06673341	      1.32720778	     -3.22467992	    -19.76904596	     10.40599302	     -4.18224462	      4.76955484	     21.15814510	     -2.84173867	     -4.17361801	    -68.46526951	      6.59850146	      4.52078991	      2.89555789	    -11.25740868	      4.53505894	      1.38641372
      0.54566667	     -5.85333907	      1.41656425	      2.20554461	     -0.38671148	      1.06628757	      0.33675095	     16.58612717	      1.25700532	     -3.22513057	    -19.43896713	     10.46019148	     -4.04857737	      4.76104391	     21.61351053	     -2.73785659	     -4.27572358	    -68.03354395	      6.94597768	      4.77795756	      2.92521257	    -11.30146422	      4.36907567	      1.50510628
      0.54983333	     -5.82175058	      1.50010178	      2.12096466	     -0.38157041	      1.06719219	      0.33714097	     16.08720057	      1.20946015	     -3.19826525	    -19.10035423	     10.55917172	     -3.89683277	      4.75180457	     22.04850181	     -2.66128822	     -4.38680220	    -67.56975221	      7.26787165	      5.05315648	      2.96113845	    -11.38212602	      4.22934212	      1.70087229
      0.55400000	     -5.79092245	      1.58818008	      2.02100979	     -0.37641302	      1.06807698	      0.33754549	     15.59157945	      1.15803024	     -3.17502978	    -18.76415840	     10.65197177	     -3.75199987	      4.73991795	     22.46315395	     -2.58483653	     -4.51460358	    -67.04705126	      7.56972049	      5.29059759	      3.00340484	    -11.45305958	      4.07852764	      1.92569691
      0.55816667	     -5.77429570	      1.67406258	      1.91188229	     -0.37125842	      1.06889299	      0.33795061	     15.11644564	      1.10861625	     -3.14747023	    -18.43265758	     10.69896996	     -3.62727207	      4.73353810	     22.88091933	     -2.51629844	     -4.66280985	    -66.48280523	      7.88263895	      5.48160620	      3.03252842	    -11.49358452	      3.91469404	      2.06108795
      0.56233333	     -5.72385483	      1.75248362	      1.80208104	     -0.36612254	      1.06972210	      0.33835250	     14.60002830	      1.06883975	     -3.10478965	    -18.08923065	     10.80352942	     -3.49032506	      4.72109149	     23.25056141	     -2.45767723	     -4.80786228	    -65.87160679	      8.15692618	      5.67919644	      3.08376315	    -11.59266365	      3.77053805	      2.35216976
      0.56650000	     -5.72194437	      1.83021525	      1.68400210	     -0.36099254	      1.07041792	      0.33875582	     14.14639527	      1.02917348	     -3.04656430	    -17.76481914	     10.86333113	     -3.38214504	      4.71429222	     23.66036366	     -2.40011941	     -4.96128996	    -65.21787516	      8.43735944	      5.84440499	      3.11634806	    -11.62278433	      3.64434834	      2.49800596
      0.57066667	     -5.68675991	      1.90761469	      1.56142623	     -0.35586426	      1.07113630	      0.33916860	     13.65364119	      0.99051862	     -2.98998286	    -17.43027534	     10.94684817	     -3.26610911	      4.70521384	     24.01993296	     -2.34967141	     -5.12775372	    -64.51989127	      8.69331040	      5.98721541	      3.15901640	    -11.70238280	      3.48455433	      2.73801811
      0.57483333	     -5.69046211	      1.98072782	      1.43447239	     -0.35074664	      1.07172191	      0.33956297	     13.21164337	      0.95408391	     -2.92382588	    -17.11190352	     11.02157907	     -3.16015593	      4.69753176	     24.41126904	     -2.30308200	     -5.29856047	    -63.78374188	      8.93929979	      6.10554069	      3.19660132	    -11.72807922	      3.34448981	      2.93226508
      0.57900000	     -5.70166427	      2.05976607	      1.30392991	     -0.34563390	      1.07227019	      0.33996401	     12.78194816	      0.91026718	     -2.85313042	    -16.79892764	     11.06886270	     -3.05808223	      4.69452259	     24.79326781	     -2.24898084	     -5.47014240	    -62.99632670	      9.17741290	      6.17986679	      3.21676322	    -11.74348474	      3.20606889	      3.04663953
      0.58316667	     -5.69366238	      2.13073389	      1.17138968	     -0.34053357	      1.07279049	      0.34035350	     12.33433646	      0.87409959	     -2.78183170	    -16.49181582	     11.15336878	     -2.96182672	      4.69135316	     25.14265597	     -2.20583402	     -5.64488401	    -62.16873457	      9.38863557	      6.25433092	      3.23904939	    -11.78655543	      3.07871678	      3.24266888
      0.58733333	     -5.69849280	      2.19998852	      1.04202714	     -0.33544432	      1.07324077	      0.34073547	     11.90249056	      0.83762066	     -2.71092933	    -16.18590195	     11.22921161	     -2.86738327	      4.68873449	     25.49472966	     -2.16197281	     -5.81396207	    -61.30244515	      9.58174148	      6.29317813	      3.25697582	    -11.81396614	      2.94492296	      3.41548082
      0.59150000	     -5.72610823	      2.25156363	      0.91471783	     -0.33036093	      1.07359775	      0.34109714	     11.49716760	      0.81855147	     -2.63615362	    -15.88128634	     11.30644765	     -2.78253376	      4.68597586	     25.86301691	     -2.13503977	     -5.97570113	    -60.40360256	      9.75856098	      6.31251137	      3.27272992	    -11.81534933	      2.83328960	      3.59721534
      0.59566667	     -5.74520212	      2.30331536	      0.79214037	     -0.32528735	      1.07391424	      0.34145435	     11.08576213	      0.79730937	     -2.56580952	    -15.58428675	     11.38585860	     -2.70000910	      4.68377178	     26.20890578	     -2.10559926	     -6.13021998	    -59.46540714	      9.91694706	      6.30901625	      3.28449959	    -11.82737114	      2.72110273	      3.75542341
      0.59983333	     -5.75336476	      2.35251128	      0.67392237	     -0.32022510	      1.07420343	      0.34179130	     10.66312873	      0.77598141	     -2.50113697	    -15.28845185	     11.49105854	     -2.61478733	      4.67941179	     26.52979499	     -2.07305474	     -6.27304403	    -58.48570634	     10.04355423	      6.27752041	      3.29729685	    -11.85928728	      2.60420877	      3.97168359
      0.60400000	     -5.80837574	      2.38514279	      0.56698998	     -0.31515517	      1.07436570	      0.34210097	     10.29008921	      0.76997050	     -2.44141704	    -14.98842144	     11.55710481	     -2.53349961	      4.67848237	     26.89285862	     -2.05317290	     -6.40183229	    -57.47721084	     10.17818347	      6.24497808	      3.30048065	    -11.82803776	      2.52297610	      4.03399838
      0.60816667	     -5.82013901	      2.43086738	      0.44599005	     -0.31012514	      1.07454834	      0.34240517	      9.88669268	      0.74821875	     -2.37335554	    -14.72210848	     11.66632901	     -2.46384419	      4.67298413	     27.18638510	     -2.01608259	     -6.53073992	    -56.41040259	     10.25691173	      6.16427346	      3.30398998	    -11.85670440	      2.42276970	      4.24493746
